<svg width="35" height="35" viewBox="0 0 35 35" fill="none" xmlns="http://www.w3.org/2000/svg">
<path fill-rule="evenodd" clip-rule="evenodd" d="M11.9053 8C10.2467 8 8.74682 8.41454 7.65818 9.42541C6.55922 10.4459 5.99988 11.9613 5.99988 13.9054V21.0946C5.99988 23.0388 6.55922 24.5541 7.65818 25.5746C8.74682 26.5855 10.2467 27 11.9053 27H22.1756C23.8342 27 25.3341 26.5855 26.4226 25.5746C27.5216 24.5541 28.081 23.0388 28.081 21.0946V13.9054C28.081 11.9613 27.5216 10.4459 26.4226 9.42541C25.3341 8.41454 23.8342 8 22.1756 8H11.9053ZM24.4643 13.764C24.8008 13.5039 24.8629 13.0201 24.6027 12.6835C24.3427 12.3469 23.859 12.2849 23.5223 12.545L17.8253 16.947C17.363 17.3044 16.7177 17.3044 16.2554 16.947L10.5584 12.545C10.2218 12.2849 9.73807 12.3469 9.47796 12.6835C9.21784 13.0201 9.27986 13.5039 9.61649 13.764L15.3135 18.1661C16.3306 18.952 17.7501 18.952 18.7673 18.1661L24.4643 13.764Z" fill="#E9088B"/>
</svg>
