<svg width="281" height="202" viewBox="0 0 281 202" fill="none" xmlns="http://www.w3.org/2000/svg">
<path d="M19.1697 152.6V158.35H30.4197V165.8H19.1697V172.15H31.9197V180H9.3697V144.75H31.9197V152.6H19.1697ZM35.1623 165.95C35.1623 163.05 35.6789 160.517 36.7123 158.35C37.7789 156.183 39.2123 154.517 41.0123 153.35C42.8456 152.183 44.8789 151.6 47.1123 151.6C49.0456 151.6 50.7123 151.983 52.1123 152.75C53.5123 153.517 54.5956 154.55 55.3623 155.85V151.95H65.1623V180H55.3623V176.1C54.5956 177.4 53.4956 178.433 52.0623 179.2C50.6623 179.967 49.0123 180.35 47.1123 180.35C44.8789 180.35 42.8456 179.767 41.0123 178.6C39.2123 177.433 37.7789 175.767 36.7123 173.6C35.6789 171.4 35.1623 168.85 35.1623 165.95ZM55.3623 165.95C55.3623 164.15 54.8623 162.733 53.8623 161.7C52.8956 160.667 51.6956 160.15 50.2623 160.15C48.7956 160.15 47.5789 160.667 46.6123 161.7C45.6456 162.7 45.1623 164.117 45.1623 165.95C45.1623 167.75 45.6456 169.183 46.6123 170.25C47.5789 171.283 48.7956 171.8 50.2623 171.8C51.6956 171.8 52.8956 171.283 53.8623 170.25C54.8623 169.217 55.3623 167.783 55.3623 165.95ZM82.6967 180.35C80.1633 180.35 77.8967 179.933 75.8967 179.1C73.93 178.233 72.3633 177.067 71.1967 175.6C70.0633 174.1 69.43 172.417 69.2967 170.55H78.7967C78.93 171.45 79.3467 172.15 80.0467 172.65C80.7467 173.15 81.6133 173.4 82.6467 173.4C83.4467 173.4 84.08 173.233 84.5467 172.9C85.0133 172.567 85.2467 172.133 85.2467 171.6C85.2467 170.9 84.8633 170.383 84.0967 170.05C83.33 169.717 82.0633 169.35 80.2967 168.95C78.2967 168.55 76.63 168.1 75.2967 167.6C73.9633 167.1 72.7967 166.283 71.7967 165.15C70.83 164.017 70.3467 162.483 70.3467 160.55C70.3467 158.883 70.7967 157.383 71.6967 156.05C72.5967 154.683 73.9133 153.6 75.6467 152.8C77.4133 152 79.53 151.6 81.9967 151.6C85.6633 151.6 88.5467 152.5 90.6467 154.3C92.7467 156.1 93.9633 158.467 94.2967 161.4H85.4467C85.28 160.5 84.88 159.817 84.2467 159.35C83.6467 158.85 82.83 158.6 81.7967 158.6C80.9967 158.6 80.38 158.75 79.9467 159.05C79.5467 159.35 79.3467 159.767 79.3467 160.3C79.3467 160.967 79.73 161.483 80.4967 161.85C81.2633 162.183 82.4967 162.533 84.1967 162.9C86.23 163.333 87.9133 163.817 89.2467 164.35C90.6133 164.883 91.7967 165.75 92.7967 166.95C93.83 168.117 94.3467 169.717 94.3467 171.75C94.3467 173.383 93.8633 174.85 92.8967 176.15C91.9633 177.45 90.6133 178.483 88.8467 179.25C87.1133 179.983 85.0633 180.35 82.6967 180.35ZM129.365 151.95L111.565 193.35H100.915L107.615 178.8L96.1146 151.95H107.015L112.915 167.85L118.615 151.95H129.365ZM159.349 180L152.349 167H151.299V180H141.499V144.75H156.949C159.782 144.75 162.182 145.25 164.149 146.25C166.115 147.217 167.599 148.567 168.599 150.3C169.599 152 170.099 153.917 170.099 156.05C170.099 158.45 169.432 160.567 168.099 162.4C166.799 164.2 164.882 165.483 162.349 166.25L170.299 180H159.349ZM151.299 160.3H156.149C157.482 160.3 158.482 159.983 159.149 159.35C159.815 158.717 160.149 157.8 160.149 156.6C160.149 155.467 159.799 154.583 159.099 153.95C158.432 153.283 157.449 152.95 156.149 152.95H151.299V160.3ZM179.505 149.35C177.772 149.35 176.372 148.883 175.305 147.95C174.272 146.983 173.755 145.783 173.755 144.35C173.755 142.883 174.272 141.667 175.305 140.7C176.372 139.733 177.772 139.25 179.505 139.25C181.205 139.25 182.572 139.733 183.605 140.7C184.672 141.667 185.205 142.883 185.205 144.35C185.205 145.783 184.672 146.983 183.605 147.95C182.572 148.883 181.205 149.35 179.505 149.35ZM184.355 151.95V180H174.555V151.95H184.355ZM188.336 165.95C188.336 163.05 188.853 160.517 189.886 158.35C190.953 156.183 192.403 154.517 194.236 153.35C196.069 152.183 198.103 151.6 200.336 151.6C202.136 151.6 203.736 151.983 205.136 152.75C206.569 153.483 207.686 154.5 208.486 155.8V143H218.336V180H208.486V176.1C207.719 177.4 206.636 178.433 205.236 179.2C203.836 179.967 202.186 180.35 200.286 180.35C198.053 180.35 196.019 179.767 194.186 178.6C192.386 177.433 190.953 175.767 189.886 173.6C188.853 171.4 188.336 168.85 188.336 165.95ZM208.536 165.95C208.536 164.15 208.036 162.733 207.036 161.7C206.069 160.667 204.869 160.15 203.436 160.15C201.969 160.15 200.753 160.667 199.786 161.7C198.819 162.7 198.336 164.117 198.336 165.95C198.336 167.75 198.819 169.183 199.786 170.25C200.753 171.283 201.969 171.8 203.436 171.8C204.869 171.8 206.069 171.283 207.036 170.25C208.036 169.217 208.536 167.783 208.536 165.95ZM250.72 165.65C250.72 166.417 250.67 167.183 250.57 167.95H232.02C232.12 169.483 232.537 170.633 233.27 171.4C234.037 172.133 235.004 172.5 236.17 172.5C237.804 172.5 238.97 171.767 239.67 170.3H250.12C249.687 172.233 248.837 173.967 247.57 175.5C246.337 177 244.77 178.183 242.87 179.05C240.97 179.917 238.87 180.35 236.57 180.35C233.804 180.35 231.337 179.767 229.17 178.6C227.037 177.433 225.354 175.767 224.12 173.6C222.92 171.433 222.32 168.883 222.32 165.95C222.32 163.017 222.92 160.483 224.12 158.35C225.32 156.183 226.987 154.517 229.12 153.35C231.287 152.183 233.77 151.6 236.57 151.6C239.337 151.6 241.787 152.167 243.92 153.3C246.054 154.433 247.72 156.067 248.92 158.2C250.12 160.3 250.72 162.783 250.72 165.65ZM240.72 163.2C240.72 162 240.32 161.067 239.52 160.4C238.72 159.7 237.72 159.35 236.52 159.35C235.32 159.35 234.337 159.683 233.57 160.35C232.804 160.983 232.304 161.933 232.07 163.2H240.72ZM264.531 156.9C265.631 155.3 266.964 154.033 268.531 153.1C270.098 152.167 271.781 151.7 273.581 151.7V162.15H270.831C268.698 162.15 267.114 162.567 266.081 163.4C265.048 164.233 264.531 165.683 264.531 167.75V180H254.731V151.95H264.531V156.9Z" fill="white"/>
<g filter="url(#filter0_f_144_5892)">
<path fill-rule="evenodd" clip-rule="evenodd" d="M140.432 127C169.95 127 193.88 124.314 193.88 121C193.88 117.686 169.95 115 140.432 115C110.913 115 86.9839 117.686 86.9839 121C86.9839 124.314 110.913 127 140.432 127Z" fill="black" fill-opacity="0.2"/>
</g>
<rect x="77.552" width="125.76" height="120" rx="34" fill="white"/>
<mask id="mask0_144_5892" style="mask-type:luminance" maskUnits="userSpaceOnUse" x="77" y="0" width="127" height="120">
<rect x="77.552" width="125.76" height="120" rx="34" fill="white"/>
</mask>
<g mask="url(#mask0_144_5892)">
<path fill-rule="evenodd" clip-rule="evenodd" d="M138.576 -12V0.645075H132.632V49.8526H124.825V34.6987H120.713V31.0384L111.718 34.6987H109.514V25.5954L98.752 12.4011L87.9903 25.5954V56.5529H82.9384V62.5689H75.4841V38.0161H69.3063L69.5636 27.8288H62.4144V24.9111H55.1708L54.0562 7.26697L52.9421 24.9111H51.5488V27.8288H49.6689L50.3577 55.1116H49.0234V43.075L34.0463 34.6987V49.8526H19.0686V38.0161H9.82328V31.0384L-6.01395 41.628V31.0384L-27.248 45.2367V149H-11.4114H-6.01395H9.14854H9.82328H19.0686H34.0463H49.0234H52.1274H65.5634H67.1045H74.6178H75.4841H87.9903H96.1418H109.514H124.825H132.632H145.865H151.522H164.791H168.389H180.574H187.209H197.926H201.809H207.336H216.746H219.161H228.571H233.649H237.981H254.882H261.885H270.992H280.101H287.113H289.209H299.382H302.09H311.256V47.8745H304.043L304.549 27.8288H289.209V-1.18818H280.101V4.97991H270.992V10.6272H261.885V39.7421H254.882V26.2054H252.389V24.7125H236.142V26.2054H233.649V54.4319H228.571V18.1551H226.076V16.6622H209.831V18.1551H207.336V39.0449H201.809V26.2054H199.315V24.7125H183.069V26.2054H180.574V31.0384L175.361 36.3556V45.2703H168.389V39.7421H164.791V26.2054H151.522V18.1912L145.865 13.6202V0.645075H139.921V-12H138.576Z" fill="#FFE7F5"/>
<path fill-rule="evenodd" clip-rule="evenodd" d="M210.689 47V56.5034H206.217V93.4855H200.344V82.0966H197.25V79.3457L190.483 82.0966H188.825V75.2549L180.729 65.3387L172.632 75.2549V98.5211H168.832V103.042H163.224V84.5898H158.576L158.77 76.9335H153.391V74.7406H147.942L147.103 61.4801L146.265 74.7406H145.217V76.9335H143.802L144.321 97.4379H143.317V88.3918L132.049 82.0966V93.4855H120.781V84.5898H113.826V79.3457L101.911 87.3043V79.3457L85.936 90.0164V168H97.8503H101.911H113.318H113.826H120.781H132.049H143.317H145.652H155.76H156.92H162.572H163.224H172.632H178.765H188.825H200.344H206.217H216.173H220.429H230.412H233.118H242.285H247.277H255.34H258.261H262.419H269.498H271.315H278.394H282.214H285.473H298.189H303.457H310.309H317.162H322.437H324.014H331.667H333.705H340.6V91.9988H335.174L335.554 76.9335H324.014V55.1257H317.162V59.7613H310.309V64.0055H303.457V85.8869H298.189V75.7134H296.313V74.5914H284.09V75.7134H282.214V96.9271H278.394V69.6632H276.517V68.5412H264.296V69.6632H262.419V85.363H258.261V75.7134H256.384V74.5914H244.162V75.7134H242.285V79.3457L238.363 83.3418V90.0416H233.118V85.8869H230.412V75.7134H220.429V69.6903L216.173 66.2549V56.5034H211.701V47H210.689Z" fill="#FFA7DB" fill-opacity="0.5"/>
<path fill-rule="evenodd" clip-rule="evenodd" d="M42.3113 75V82.2258H45.7158V110.344H50.1877V101.685H52.5429V99.5934L57.6947 101.685H58.9567V96.4831L65.1209 88.9435L71.2847 96.4831V114.173H74.1782V117.611H78.4477V103.581H81.9861L81.8387 97.7593H85.9334V96.092H90.0822L90.7207 86.0097L91.3588 96.092H92.1568V97.7593H93.2335L92.839 113.349H93.6032V106.471L102.181 101.685V110.344H110.76V103.581H116.055V99.5934L125.126 105.645V99.5934L137.288 107.707V167H128.218H125.126H116.442H116.055H110.76H102.181H93.6032H91.8254H84.1298H83.2471H78.9439H78.4477H71.2847H66.6159H58.9567H50.1877H45.7158H38.1364H34.8964H27.2964H25.2357H18.2568H14.4568H8.31836H6.09448H2.92876H-2.46054H-3.84422H-9.23352H-12.1418H-14.6231H-24.3035H-28.3142H-33.5307H-38.7478H-42.7641H-43.9643H-49.7909H-51.3423H-56.5919V109.214H-52.4608L-52.7504 97.7593H-43.9643V81.1782H-38.7478V84.7028H-33.5307V87.9298H-28.3142V104.567H-24.3035V96.8317H-22.8754V95.9786H-13.5703V96.8317H-12.1418V112.961H-9.23352V92.2315H-7.80479V91.3784H1.50002V92.2315H2.92876V104.169H6.09448V96.8317H7.5229V95.9786H16.8277V96.8317H18.2568V99.5934L21.2426 102.632V107.726H25.2357V104.567H27.2964V96.8317H34.8964V92.2521L38.1364 89.6401V82.2258H41.5413V75H42.3113Z" fill="#FF87CD"/>
<path d="M165.373 84.2749L162.986 81.7154L162.98 81.7215L165.373 84.2749ZM115.506 84.2749L117.904 81.7248C117.899 81.7206 117.895 81.7164 117.89 81.7122L115.506 84.2749ZM105.061 55.9469L108.533 56.3885L108.534 56.3801L105.061 55.9469ZM175.801 55.9662L172.327 56.3948L172.329 56.4085L175.801 55.9662ZM175.801 56.0387L177.357 59.174C178.688 58.5133 179.457 57.0837 179.274 55.6085L175.801 56.0387ZM105.061 56.0387L101.582 55.6503C101.419 57.1104 102.186 58.517 103.501 59.1718L105.061 56.0387ZM141.115 26.01L141.033 29.509L141.115 26.01ZM165.373 84.2749L167.762 86.8328C168.61 86.0416 169.01 84.8821 168.832 83.7366L165.373 84.2749ZM115.506 84.2749L112.047 83.7425C111.871 84.8845 112.271 86.0397 113.114 86.8295L115.506 84.2749ZM172.564 60.01C172.564 68.4783 168.924 76.1767 162.986 81.7154L167.761 86.8344C175.024 80.0594 179.564 70.5443 179.564 60.01H172.564ZM162.98 81.7215C157.187 87.1523 149.244 90.51 140.431 90.51V97.51C151.048 97.51 160.695 93.458 167.767 86.8283L162.98 81.7215ZM140.431 90.51C131.634 90.51 123.676 87.1512 117.904 81.7248L113.109 86.8249C120.166 93.4592 129.834 97.51 140.431 97.51V90.51ZM117.89 81.7122C111.937 76.1749 108.3 68.4783 108.3 60.01H101.3C101.3 70.5443 105.838 80.0612 113.123 86.8376L117.89 81.7122ZM108.3 60.01C108.3 58.7864 108.382 57.5761 108.533 56.3885L101.589 55.5053C101.403 56.9692 101.3 58.4748 101.3 60.01H108.3ZM108.534 56.3801C110.405 41.3802 123.861 29.51 140.431 29.51V22.51C120.543 22.51 103.921 36.8032 101.588 55.5138L108.534 56.3801ZM140.431 29.51C157.022 29.51 170.475 41.3804 172.327 56.3948L179.275 55.5377C176.963 36.8031 160.338 22.51 140.431 22.51V29.51ZM172.329 56.4085C172.481 57.5994 172.564 58.7919 172.564 60.01H179.564C179.564 58.4693 179.458 56.9803 179.273 55.5239L172.329 56.4085ZM174.245 52.9035C164.859 57.5606 153.97 60.3628 141.115 60.3628V67.3628C155.037 67.3628 166.993 64.3163 177.357 59.174L174.245 52.9035ZM141.115 60.3628C128.194 60.3628 115.95 57.5508 106.621 52.9056L103.501 59.1718C113.921 64.3605 127.256 67.3628 141.115 67.3628V60.3628ZM108.539 56.4271C110.255 41.0604 124.679 29.1232 141.033 29.509L141.198 22.511C121.564 22.0478 103.739 36.3415 101.582 55.6503L108.539 56.4271ZM141.033 29.509C157.426 29.8958 170.461 41.3948 172.328 56.4689L179.274 55.6085C176.949 36.8301 160.792 22.9732 141.198 22.511L141.033 29.509ZM162.985 81.7169C157.141 87.1746 149.305 90.51 140.431 90.51V97.51C151.12 97.51 160.653 93.4727 167.762 86.8328L162.985 81.7169ZM140.431 90.51C131.573 90.51 123.722 87.1735 117.899 81.7203L113.114 86.8295C120.209 93.4738 129.761 97.51 140.431 97.51V90.51ZM118.966 84.8073C120.462 75.0852 129.862 67.3628 141.115 67.3628V60.3628C126.873 60.3628 114.137 70.1647 112.047 83.7425L118.966 84.8073ZM141.115 67.3628C152.126 67.3628 160.366 74.8582 161.915 84.8132L168.832 83.7366C166.755 70.3916 155.596 60.3628 141.115 60.3628V67.3628Z" fill="#E9088B"/>
</g>
<defs>
<filter id="filter0_f_144_5892" x="78.829" y="106.845" width="123.206" height="28.3097" filterUnits="userSpaceOnUse" color-interpolation-filters="sRGB">
<feFlood flood-opacity="0" result="BackgroundImageFix"/>
<feBlend mode="normal" in="SourceGraphic" in2="BackgroundImageFix" result="shape"/>
<feGaussianBlur stdDeviation="4.07742" result="effect1_foregroundBlur_144_5892"/>
</filter>
</defs>
</svg>
